<?xml version="1.0" encoding="UTF-8"?>
<svg version="1.1" xmlns="http://www.w3.org/2000/svg" width="256" height="256">
<path d="M0 0 C1.51564293 -0.00788544 1.51564293 -0.00788544 3.06190491 -0.01593018 C6.39144483 -0.0291014 9.7205043 -0.02040402 13.05004883 -0.01025391 C15.36599316 -0.01227499 17.68193687 -0.01518671 19.99787903 -0.01895142 C24.84565302 -0.02337048 29.69326096 -0.01695522 34.54101562 -0.00292969 C40.76224774 0.01419045 46.9830924 0.00430024 53.20431042 -0.01364708 C57.98345375 -0.02447165 62.76250471 -0.02104515 67.54165077 -0.0132637 C69.83623615 -0.01125951 72.13082985 -0.01372861 74.4254055 -0.02070236 C77.62627882 -0.028298 80.82651784 -0.01674003 84.02734375 0 C84.97960846 -0.00607269 85.93187317 -0.01214539 86.91299438 -0.0184021 C88.21878197 -0.00571289 88.21878197 -0.00571289 89.5509491 0.00723267 C90.30732257 0.00836374 91.06369604 0.00949482 91.84298992 0.01066017 C94.41592091 0.50208309 95.23265166 1.32821828 96.81958008 3.38818359 C97.71183777 5.3054657 97.71183777 5.3054657 98.4453125 7.49243164 C98.72537643 8.31305588 99.00544037 9.13368011 99.29399109 9.97917175 C99.58474014 10.86051285 99.8754892 11.74185394 100.17504883 12.64990234 C100.48154861 13.55569534 100.7880484 14.46148834 101.10383606 15.39472961 C102.07992945 18.28564931 103.0436291 21.18052902 104.00708008 24.07568359 C104.66707476 26.03754569 105.32787249 27.99913784 105.98950195 29.96044922 C107.60885972 34.76661221 109.21711521 39.57636316 110.81958008 44.38818359 C111.38942375 44.38965015 111.95926743 44.39111671 112.54637909 44.39262772 C126.43574767 44.42973938 140.32487006 44.48906259 154.21404266 44.57208633 C160.9308663 44.61183298 167.64757353 44.64424753 174.36450195 44.65917969 C180.84856762 44.67434024 187.33227241 44.7087762 193.81617737 44.75649261 C196.2880184 44.77131241 198.75991095 44.77922495 201.23179626 44.78006744 C204.69829639 44.78243691 208.16379907 44.8095174 211.63012695 44.84228516 C212.64864746 44.83725479 213.66716797 44.83222443 214.71655273 44.82704163 C220.68945493 44.91420481 226.06823879 45.4675983 230.81958008 49.38818359 C234.54625187 53.91117433 235.40054366 57.49491666 235.33424377 63.20654297 C235.3411893 63.97514397 235.34813483 64.74374496 235.35529083 65.5356369 C235.37353209 68.10136758 235.36330498 70.6661706 235.35302734 73.23193359 C235.36008724 75.07528372 235.36883255 76.91862804 235.37913513 78.76196289 C235.40162957 83.76194606 235.39868945 88.7616127 235.38981366 93.7616272 C235.38470276 97.93673602 235.39199708 102.11178542 235.39928573 106.28688812 C235.41628452 116.13581032 235.41271859 125.98457756 235.39599609 135.83349609 C235.37906838 145.99357461 235.39491838 156.15322369 235.42721897 166.31325531 C235.45390763 175.03869557 235.46119301 183.76400209 235.45270389 192.48947906 C235.44777336 197.69987012 235.44999745 202.91000269 235.47049141 208.12036133 C235.48883748 213.01906691 235.4829029 217.91715413 235.45829201 222.81582642 C235.45328101 224.61292207 235.45678139 226.41006475 235.46944046 228.2071228 C235.48536515 230.66206792 235.47042806 233.1149752 235.44776917 235.56982422 C235.45960489 236.27975273 235.47144062 236.98968124 235.48363501 237.72112274 C235.37864915 243.32557282 233.6318536 245.57731001 229.81958008 249.38818359 C224.62971763 252.97928936 219.76481067 252.79842498 213.68334961 252.72875977 C212.67785568 252.72919785 211.67236176 252.72963593 210.63639832 252.73008728 C207.32486308 252.72800329 204.01383899 252.70469011 200.70239258 252.68115234 C198.40168535 252.67555502 196.10097454 252.67128556 193.80026245 252.66828918 C187.75364254 252.65685125 181.70723984 252.62739284 175.66070557 252.59417725 C169.48713112 252.56345387 163.31352148 252.54977898 157.13989258 252.53466797 C145.03302647 252.50252236 132.92632136 252.45133849 120.81958008 252.38818359 C115.57151431 241.35281816 110.66544472 230.19433285 105.88208008 218.95068359 C105.19155477 217.33274691 104.50080068 215.71490786 103.80981445 214.09716797 C102.14377595 210.1952882 100.48079519 206.2921192 98.81958008 202.38818359 C97.97751039 202.38598375 97.97751039 202.38598375 97.11842918 202.38373947 C83.44673471 202.34665691 69.77529093 202.28737126 56.10379601 202.20428085 C49.49228292 202.16476802 42.88090379 202.132598 36.26928711 202.1171875 C29.88896885 202.10204632 23.50901877 202.06764507 17.12886429 202.01987457 C14.69444605 202.00503472 12.25997526 201.99714109 9.82551193 201.99629974 C6.41607129 201.99393629 3.00765325 201.96690462 -0.40161133 201.93408203 C-1.40862091 201.9391124 -2.41563049 201.94414276 -3.45315552 201.94932556 C-10.5287101 201.84390648 -14.25569801 200.37373564 -19.30927372 195.2150526 C-21.62832478 191.71150298 -21.74335776 188.94173355 -21.69508362 184.87989807 C-21.70202915 184.13256926 -21.70897467 183.38524045 -21.71613067 182.61526531 C-21.73440121 180.11551951 -21.72413671 177.61672271 -21.71386719 175.11694336 C-21.72092567 173.323001 -21.72967039 171.52906459 -21.73997498 169.73513794 C-21.76248698 164.86525426 -21.75952496 159.99569531 -21.75065351 155.12577939 C-21.74554522 151.06007457 -21.75283491 146.99443086 -21.76012558 142.92873234 C-21.77713043 133.33728096 -21.77355292 123.74598865 -21.75683594 114.15454102 C-21.73991326 104.25975243 -21.75574989 94.36540496 -21.78805882 84.47066456 C-21.81474982 75.97454106 -21.82203206 67.4785549 -21.81354374 58.98239368 C-21.80861318 53.90836005 -21.81083713 48.83459185 -21.83133125 43.76059151 C-21.84968066 38.98911368 -21.84373875 34.21827061 -21.81913185 29.44682693 C-21.81412162 27.69649637 -21.81761926 25.94611752 -21.8302803 24.19582558 C-21.84621016 21.80430499 -21.83126347 19.41487487 -21.80860901 17.02345276 C-21.82044474 16.33229687 -21.83228047 15.64114098 -21.84447485 14.92904097 C-21.73810781 9.39471607 -19.93579033 7.15850783 -16.18041992 3.38818359 C-10.98886707 -0.202027 -6.08606555 -0.03906058 0 0 Z " fill="#0BA437" transform="translate(21.180419921875,1.61181640625)"/>
<path d="M0 0 C14.59513815 -0.09359135 29.19023638 -0.16405148 43.78561401 -0.20724869 C50.56307021 -0.22784229 57.34033955 -0.25590107 64.11767578 -0.30175781 C70.65991512 -0.34600261 77.20203337 -0.36914773 83.74441528 -0.37950897 C86.23864799 -0.38689157 88.73287026 -0.40130802 91.22702026 -0.42292023 C94.72449566 -0.4520172 98.22117276 -0.45595321 101.71875 -0.45410156 C103.26055687 -0.47567322 103.26055687 -0.47567322 104.83351135 -0.49768066 C110.84188486 -0.46333038 116.22424015 0.04313614 121 4 C124.72604466 8.52358051 125.58096625 12.1065036 125.5146637 17.81835938 C125.52160922 18.58696037 125.52855475 19.35556137 125.53571075 20.14745331 C125.55395202 22.71318399 125.5437249 25.27798701 125.53344727 27.84375 C125.54050716 29.68710012 125.54925247 31.53044445 125.55955505 33.3737793 C125.58204949 38.37376247 125.57910937 43.37342911 125.57023358 48.3734436 C125.56512268 52.54855243 125.572417 56.72360183 125.57970566 60.89870453 C125.59670445 70.74762672 125.59313851 80.59639397 125.57641602 90.4453125 C125.5594883 100.60539101 125.5753383 110.76504009 125.6076389 120.92507172 C125.63432755 129.65051198 125.64161293 138.37581849 125.63312382 147.10129547 C125.62819328 152.31168653 125.63041737 157.52181909 125.65091133 162.73217773 C125.6692574 167.63088332 125.66332283 172.52897054 125.63871193 177.42764282 C125.63370093 179.22473847 125.63720131 181.02188116 125.64986038 182.81893921 C125.66578507 185.27388433 125.65084798 187.72679161 125.62818909 190.18164062 C125.64002482 190.89156914 125.65186054 191.60149765 125.66405493 192.33293915 C125.55906892 197.93739759 123.81258539 200.18933458 120 204 C114.82811717 207.57101716 110.01262731 207.41065787 103.95556641 207.34057617 C102.95982605 207.34101425 101.96408569 207.34145233 100.93817139 207.34190369 C97.65909973 207.33981987 94.38054444 207.31650754 91.1015625 207.29296875 C88.82327555 207.28737136 86.54498497 207.28310194 84.26669312 207.28010559 C78.27925595 207.26866814 72.29203817 207.23921016 66.3046875 207.20599365 C60.19143644 207.17526921 54.07814982 207.16159516 47.96484375 207.14648438 C35.97646628 207.11433963 23.9882514 207.06315636 12 207 C13.62755842 202.61264856 15.85582604 199.53291601 18.9375 196.0625 C22.85393596 191.54715556 26.65038652 186.97403818 30.3125 182.25 C34.66177636 176.65521633 39.11677935 171.15500204 43.625 165.6875 C44.54986206 164.56553223 44.54986206 164.56553223 45.4934082 163.42089844 C49.85248332 158.14751668 49.85248332 158.14751668 51 157 C50.66505525 150.97099457 49.04802385 146.08143688 46.7421875 140.515625 C45.91482573 137.71130404 46.00243227 136.69728614 47 134 C49.28336086 132.14675389 51.50330073 130.50101617 53.9375 128.875 C58.69056526 125.71534904 58.69056526 125.71534904 63 122 C66.89201557 122.2701616 69.25193094 124.61510892 72.1875 127 C77.26488059 130.91002238 82.45458423 134.08179684 88.125 137.0625 C88.87160889 137.45630859 89.61821777 137.85011719 90.38745117 138.25585938 C94.00542334 140.28534567 94.00542334 140.28534567 98 141 C100.475 134.07 100.475 134.07 103 127 C101.35 126.67 99.7 126.34 98 126 C89.99131013 122.3948421 82.95632298 117.30133705 76 112 C76.59188992 108.12581144 78.42663151 105.99729096 80.875 103 C87.33516935 94.63610925 92.07309401 85.31968011 97 76 C100.96 76 104.92 76 109 76 C109 70.72 109 65.44 109 60 C96.79 60 84.58 60 72 60 C72 56.37 72 52.74 72 49 C67.05 49 62.1 49 57 49 C57 52.63 57 56.26 57 60 C44.79 60 32.58 60 20 60 C13.06022832 41.4939422 13.06022832 41.4939422 10.3515625 33.57421875 C10.04930756 32.69393509 9.74705261 31.81365143 9.43563843 30.9066925 C8.81117167 29.08510632 8.18792376 27.26310182 7.56591797 25.44067383 C6.61021229 22.64423039 5.64700542 19.85043731 4.68359375 17.05664062 C4.07246327 15.27098844 3.46176921 13.48518682 2.8515625 11.69921875 C2.56415192 10.86807053 2.27674133 10.0369223 1.98062134 9.18058777 C1.71969696 8.4116066 1.45877258 7.64262543 1.18994141 6.8503418 C0.95933014 6.17690231 0.72871887 5.50346283 0.49111938 4.80961609 C0 3 0 3 0 0 Z " fill="#F2F2F3" transform="translate(131,47)"/>
<path d="M0 0 C4.95 0 9.9 0 15 0 C15 3.63 15 7.26 15 11 C27.21 11 39.42 11 52 11 C52 16.28 52 21.56 52 27 C50.22625 26.773125 48.4525 26.54625 46.625 26.3125 C43.21182558 26.38565783 43.21182558 26.38565783 40 28 C36.04263403 32.84182419 33.80548752 38.9651101 31.20556641 44.60058594 C28.96693879 49.05608052 25.93520112 52.77684861 22.8125 56.65234375 C21.21638841 58.71972105 20.0584532 60.62399308 19 63 C19.52207031 63.23976562 20.04414063 63.47953125 20.58203125 63.7265625 C23.75757907 65.39898349 26.69908052 67.39546386 29.6875 69.375 C34.9566999 72.82374299 40.12568165 75.67052893 46 78 C45.43174347 83.54050113 43.37113483 88.03715966 41 93 C30.23895755 89.67531972 21.25712661 83.78385984 12.55859375 76.8203125 C9.54365819 74.5755103 9.54365819 74.5755103 6 74 C3.58831111 75.47062346 3.58831111 75.47062346 1.25 77.625 C-2.92517712 81.24797627 -7.27424939 84.16248599 -12 87 C-12.34256836 85.93676514 -12.68513672 84.87353027 -13.03808594 83.77807617 C-14.32574056 79.78343203 -15.6161015 75.78966623 -16.90722656 71.79614258 C-17.46263753 70.0769751 -18.0173421 68.35757922 -18.57128906 66.63793945 C-21.55924084 57.36396276 -24.5841189 48.12707605 -28 39 C-29.59118944 34.66951777 -31.17128364 30.335042 -32.75 26 C-33.16121094 24.88238281 -33.57242188 23.76476562 -33.99609375 22.61328125 C-34.38410156 21.54464844 -34.77210938 20.47601563 -35.171875 19.375 C-35.5234668 18.41335937 -35.87505859 17.45171875 -36.23730469 16.4609375 C-37 14 -37 14 -37 11 C-24.79 11 -12.58 11 0 11 C0 7.37 0 3.74 0 0 Z " fill="#637F8D" transform="translate(188,96)"/>
<path d="M0 0 C1.65322266 0.01740234 1.65322266 0.01740234 3.33984375 0.03515625 C4.99693359 0.04869141 4.99693359 0.04869141 6.6875 0.0625 C7.54214844 0.07410156 8.39679688 0.08570313 9.27734375 0.09765625 C9.5196875 0.78730469 9.76203125 1.47695313 10.01171875 2.1875 C11.62512993 6.71125674 13.25773293 11.17536146 15.27734375 15.53515625 C17.34080063 20.03430144 18.81727918 24.67051338 20.33984375 29.375 C21.39613105 32.44263436 22.77568583 35.22491936 24.27734375 38.09765625 C26.67895779 44.31910766 28.87155427 50.60779328 31.02734375 56.91796875 C32.50391668 61.16311593 34.25090559 65.07781969 36.27734375 69.09765625 C36.98115532 71.08488893 37.64852485 73.08543578 38.27734375 75.09765625 C39.64611729 79.32888396 41.252325 83.13566305 43.27734375 87.09765625 C45.01645172 91.7408249 46.30272735 96.22457425 47.27734375 101.09765625 C42.65734375 101.09765625 38.03734375 101.09765625 33.27734375 101.09765625 C32.8184375 99.75832031 32.35953125 98.41898437 31.88671875 97.0390625 C31.26713414 95.24602219 30.64733076 93.45305746 30.02734375 91.66015625 C29.57681641 90.34241211 29.57681641 90.34241211 29.1171875 88.99804688 C27.32481772 83.83068293 25.35048063 78.84018224 23.02050781 73.89038086 C22.27734375 72.09765625 22.27734375 72.09765625 22.27734375 70.09765625 C9.07734375 70.09765625 -4.12265625 70.09765625 -17.72265625 70.09765625 C-18.05265625 71.74765625 -18.38265625 73.39765625 -18.72265625 75.09765625 C-20.65731772 81.60102532 -22.92535829 87.91254204 -25.79296875 94.0625 C-26.8484796 96.37309309 -27.77922571 98.7390799 -28.72265625 101.09765625 C-33.01265625 101.09765625 -37.30265625 101.09765625 -41.72265625 101.09765625 C-41.01558794 96.85524638 -40.48726432 94.07398559 -38.91015625 90.28515625 C-38.554375 89.4240625 -38.19859375 88.56296875 -37.83203125 87.67578125 C-36.80202748 85.28211052 -35.73843942 82.90737922 -34.66015625 80.53515625 C-33.01290482 76.88171924 -31.71718982 73.19929281 -30.4921875 69.38671875 C-29.42485952 66.21182435 -28.15340716 63.13256558 -26.890625 60.03125 C-25.44737167 56.40622241 -24.08399302 52.75407263 -22.72265625 49.09765625 C-20.82499834 44.00890899 -18.88826399 38.94365533 -16.84765625 33.91015625 C-15.60941652 30.81455693 -14.40557957 27.70665459 -13.20336914 24.59692383 C-3.74279025 0.13424642 -3.74279025 0.13424642 0 0 Z " fill="#E8EEE9" transform="translate(70.72265625,43.90234375)"/>
<path d="M0 0 C20.46 0 40.92 0 62 0 C60.08022808 3.83954385 57.84974056 6.68599938 55.0625 9.875 C51.154995 14.41606754 47.36072489 19.01746576 43.6875 23.75 C38.80255846 30.03639589 33.76612728 36.18897663 28.68237305 42.31542969 C28.11687744 42.99766602 27.55138184 43.67990234 26.96875 44.3828125 C26.46794922 44.98496582 25.96714844 45.58711914 25.45117188 46.20751953 C23.91673636 48.10284685 22.45172035 50.04082465 21 52 C16.14492868 41.75598916 11.48995667 31.43752959 7.00830078 21.0246582 C5.98016113 18.64151514 4.94119162 16.26325704 3.90234375 13.88476562 C3.24672841 12.36487106 2.59175472 10.84469951 1.9375 9.32421875 C1.62619141 8.61601486 1.31488281 7.90781097 0.99414062 7.17814636 C0.26929856 5.47647292 -0.37366268 3.74034194 -1 2 C-0.67 1.34 -0.34 0.68 0 0 Z " fill="#1666C0" transform="translate(121,202)"/>
<path d="M0 0 C17.49 0 34.98 0 53 0 C51.18175293 9.09123535 45.15187722 16.24793964 39 23 C33.94336573 19.57933564 31.16492103 15.08997609 28 10 C24.65004457 10.54964726 22.08839895 11.29920848 19.1875 13.0625 C17.6096875 14.0215625 17.6096875 14.0215625 16 15 C16.43515963 19.94415408 19.00473098 22.94053554 22.0625 26.625 C27 32.60658254 27 32.60658254 27 36 C24.6640625 38.04296875 24.6640625 38.04296875 21.625 40.1875 C20.12839844 41.26064453 20.12839844 41.26064453 18.6015625 42.35546875 C16 44 16 44 14 44 C10.12491574 32.93129103 6.25580325 21.85985602 2.5 10.75 C2.24524902 10.0070166 1.99049805 9.2640332 1.72802734 8.49853516 C0.73548807 5.54039254 0 3.14317778 0 0 Z " fill="#F1F2F2" transform="translate(157,123)"/>
<path d="M0 0 C2.38773782 2.38773782 2.63655326 3.87596182 3.4375 7.125 C4.62374059 11.91063345 6.21812665 16.41281835 8 21 C9.04516633 23.70700347 10.08612651 26.41557618 11.125 29.125 C11.38925781 29.80175781 11.65351562 30.47851562 11.92578125 31.17578125 C12.17972656 31.84222656 12.43367188 32.50867188 12.6953125 33.1953125 C12.92234863 33.78328613 13.14938477 34.37125977 13.38330078 34.97705078 C14.17881383 37.58656034 14.5515076 40.30904557 15 43 C5.43 43 -4.14 43 -14 43 C-13.25496604 37.78476231 -12.85110216 35.14075716 -10.8125 30.6875 C-7.5921821 23.2826411 -5.1355131 15.66240533 -2.64697266 7.98925781 C-1.7792568 5.32127712 -0.89098484 2.6602865 0 0 Z " fill="#16A53D" transform="translate(73,59)"/>
<path d="M0 0 C3.00617269 3.00617269 2.59585316 5.82381598 3 10 C2.34 9.34 1.68 8.68 1 8 C0.01 8.66 -0.98 9.32 -2 10 C-1.125 2.25 -1.125 2.25 0 0 Z " fill="#55B268" transform="translate(73,59)"/>
</svg>
