<?xml version="1.0" encoding="UTF-8"?>
<svg version="1.1" xmlns="http://www.w3.org/2000/svg" width="128" height="128">
<path d="M0 0 C1.08081848 0.00030212 2.16163696 0.00060425 3.27520752 0.00091553 C4.43574646 0.02156067 5.5962854 0.04220581 6.79199219 0.06347656 C7.98491882 0.06913635 9.17784546 0.07479614 10.40692139 0.08062744 C14.21797775 0.1030223 18.02809486 0.15322727 21.83886719 0.20410156 C24.42218695 0.22416241 27.00552144 0.2424139 29.58886719 0.25878906 C35.92252112 0.30289746 42.25562706 0.36984178 48.58886719 0.45410156 C49.23002537 1.88674166 49.8701188 3.3198583 50.50976562 4.75317383 C51.04461578 5.95019676 51.04461578 5.95019676 51.590271 7.17140198 C52.77441553 9.8782481 53.83437446 12.61330222 54.83886719 15.39160156 C55.34160156 16.76638672 55.34160156 16.76638672 55.85449219 18.16894531 C56.58886719 20.45410156 56.58886719 20.45410156 56.58886719 22.45410156 C57.624571 22.44410881 57.624571 22.44410881 58.68119812 22.43391418 C65.86741479 22.3675451 73.05354439 22.32229418 80.23999023 22.28930664 C82.92206272 22.27591454 85.60392211 22.25504079 88.28588867 22.2277832 C92.1408497 22.19139545 95.99548451 22.17437357 99.85058594 22.16113281 C101.64927376 22.13790703 101.64927376 22.13790703 103.48429871 22.11421204 C105.16547539 22.11387215 105.16547539 22.11387215 106.88061523 22.11352539 C107.86434616 22.10686356 108.84807709 22.10020172 109.86161804 22.09333801 C113.37789548 22.5584751 116.06492636 23.93016073 118.58886719 26.45410156 C118.70547047 29.41560735 118.75689628 32.35409455 118.76586914 35.31665039 C118.77244034 36.24671402 118.77901154 37.17677765 118.78578186 38.13502502 C118.80556713 41.22706167 118.81718899 44.31904963 118.82714844 47.41113281 C118.83122396 48.46434912 118.83529949 49.51756542 118.83949852 50.60269737 C118.86038149 56.17694276 118.8746736 61.75116337 118.8840332 67.32543945 C118.8951029 73.09275053 118.9295031 78.85967632 118.9692049 84.62685108 C118.99531127 89.05259433 119.00371972 93.47824497 119.00731468 97.90405846 C119.01219605 100.03037811 119.02385382 102.15669322 119.04235268 104.282938 C119.06661708 107.25672814 119.06580228 110.22951099 119.05883789 113.20336914 C119.07805298 114.52594727 119.07805298 114.52594727 119.09765625 115.87524414 C119.06525462 119.66336778 119.02578927 121.79758104 116.89195251 125.00389099 C114.11152382 126.75467592 112.54256631 126.93937489 109.26953125 126.90820312 C108.20873352 126.907901 107.14793579 126.90759888 106.05499268 126.9072876 C104.91632751 126.88664246 103.77766235 126.86599731 102.60449219 126.84472656 C101.4337616 126.83906677 100.26303101 126.83340698 99.05682373 126.82757568 C95.31708919 126.80518281 91.57831222 126.75497837 87.83886719 126.70410156 C85.30372477 126.68404045 82.76856734 126.66578901 80.23339844 126.64941406 C74.0182279 126.60530834 67.80361595 126.5383661 61.58886719 126.45410156 C60.50015229 124.33171915 59.41792611 122.20638916 58.33886719 120.07910156 C58.03851563 119.49515625 57.73816406 118.91121094 57.42871094 118.30957031 C54.82118862 113.15000488 52.6753182 107.84295763 50.58886719 102.45410156 C49.91092606 102.45045593 49.23298492 102.4468103 48.53450012 102.4430542 C41.47764825 102.4012402 34.42144743 102.33190161 27.36499023 102.24658203 C24.73159293 102.21835837 22.0981107 102.19715086 19.46459961 102.18310547 C15.67875642 102.16169636 11.89393598 102.11505291 8.10839844 102.06347656 C6.931147 102.06224792 5.75389557 102.06101929 4.54096985 102.05975342 C3.44020615 102.04003479 2.33944244 102.02031616 1.20532227 102 C-0.24362679 101.98667633 -0.24362679 101.98667633 -1.72184753 101.9730835 C-5.40358578 101.26257664 -6.94483876 100.29843919 -9.41113281 97.45410156 C-10.13957397 94.4782366 -10.08426134 91.57774137 -10.04223633 88.52636719 C-10.04939163 87.62512619 -10.05654694 86.72388519 -10.06391907 85.79533386 C-10.08082677 82.81649067 -10.06139132 79.83914805 -10.04003906 76.86035156 C-10.04086757 74.79056677 -10.04332626 72.72078203 -10.04734802 70.65100098 C-10.05020745 66.31319371 -10.0354904 61.97590238 -10.00805664 57.63818359 C-9.97397391 52.07598329 -9.97999086 46.5147057 -9.99871922 40.95246124 C-10.0092843 36.6784902 -10.00035579 32.40473413 -9.9853344 28.13078308 C-9.98014853 26.07985573 -9.98063927 24.02890598 -9.98687935 21.97798157 C-9.99232554 19.11210811 -9.97197545 16.24755858 -9.94458008 13.38183594 C-9.95110596 12.53288254 -9.95763184 11.68392914 -9.96435547 10.80924988 C-9.90403945 7.10133043 -9.81591244 5.05813933 -7.71598816 1.92449951 C-4.90881296 0.13364324 -3.31704902 -0.03100046 0 0 Z " fill="#0CA438" transform="translate(9.4111328125,0.5458984375)"/>
<path d="M0 0 C7.88364482 -0.07606355 15.767195 -0.12860577 23.65112305 -0.16479492 C26.33319554 -0.17818702 29.01505492 -0.19906077 31.69702148 -0.22631836 C35.55198251 -0.26270611 39.40661733 -0.279728 43.26171875 -0.29296875 C45.06040657 -0.31619453 45.06040657 -0.31619453 46.89543152 -0.33988953 C48.01621597 -0.34011612 49.13700043 -0.34034271 50.29174805 -0.34057617 C51.27547897 -0.34723801 52.2592099 -0.35389984 53.27275085 -0.36076355 C56.78902829 0.10437354 59.47605917 1.47605917 62 4 C62.11660328 6.96150579 62.16802909 9.89999299 62.17700195 12.86254883 C62.18685875 14.25764427 62.18685875 14.25764427 62.19691467 15.68092346 C62.21669994 18.7729601 62.2283218 21.86494807 62.23828125 24.95703125 C62.24235678 26.01024755 62.2464323 27.06346386 62.25063133 28.14859581 C62.2715143 33.7228412 62.28580641 39.2970618 62.29516602 44.87133789 C62.30623571 50.63864897 62.34063591 56.40557476 62.38033772 62.17274952 C62.40644409 66.59849277 62.41485253 71.02414341 62.41844749 75.44995689 C62.42332887 77.57627655 62.43498664 79.70259165 62.45348549 81.82883644 C62.47774989 84.80262658 62.47693509 87.77540943 62.4699707 90.74926758 C62.48278076 91.63098633 62.49559082 92.51270508 62.50878906 93.42114258 C62.47638744 97.20926622 62.43692208 99.34347948 60.30308533 102.54978943 C57.52265663 104.30057436 55.95369913 104.48527333 52.68066406 104.45410156 C51.61986633 104.45379944 50.5590686 104.45349731 49.46612549 104.45318604 C48.32746033 104.43254089 47.18879517 104.41189575 46.015625 104.390625 C44.84489441 104.38496521 43.67416382 104.37930542 42.46795654 104.37347412 C38.728222 104.35108125 34.98944503 104.3008768 31.25 104.25 C28.71485758 104.22993889 26.17970015 104.21168744 23.64453125 104.1953125 C17.42936071 104.15120678 11.21474876 104.08426454 5 104 C5.95462588 102.72384358 6.90971173 101.44803124 7.86499023 100.17236328 C8.39680405 99.46185822 8.92861786 98.75135315 9.47654724 98.01931763 C11.29831455 95.60458778 13.16770662 93.23279217 15.0625 90.875 C16.06796875 89.6065625 16.06796875 89.6065625 17.09375 88.3125 C19 86 19 86 20.65625 84.3125 C22.58034135 82.34565106 23.95389895 80.81392194 24.11328125 78 C23.73183806 74.59827717 22.83909337 71.31221066 22 68 C23.21377458 66.96091258 24.44679721 65.944281 25.6875 64.9375 C26.37199219 64.36902344 27.05648437 63.80054688 27.76171875 63.21484375 C30 62 30 62 32.48828125 62.1328125 C35.20961519 63.07237103 37.16715404 64.25768662 39.5 65.9375 C42.57510616 68.14096516 45.43989246 69.70256644 49 71 C49.66 68.69 50.32 66.38 51 64 C50.154375 63.773125 49.30875 63.54625 48.4375 63.3125 C44.32595149 61.74263602 41.49606516 59.65700952 38 57 C38.65396126 53.54676556 40.0314606 51.03876137 41.875 48.0625 C42.38804688 47.22847656 42.90109375 46.39445312 43.4296875 45.53515625 C43.94789062 44.69855469 44.46609375 43.86195312 45 43 C45.49371094 42.07703125 45.98742187 41.1540625 46.49609375 40.203125 C46.99238281 39.47609375 47.48867187 38.7490625 48 38 C51.1875 37.6875 51.1875 37.6875 54 38 C54 35.69 54 33.38 54 31 C47.73 31 41.46 31 35 31 C35 29.02 35 27.04 35 25 C32.69 25 30.38 25 28 25 C28 26.98 28 28.96 28 31 C21.73 31 15.46 31 9 31 C7.71262432 27.22982837 6.42903704 23.45868002 5.15478516 19.68408203 C4.7204363 18.40111721 4.28393346 17.11887948 3.84521484 15.83740234 C3.21402645 13.99250022 2.59128441 12.14471523 1.96875 10.296875 C1.40317383 8.63156738 1.40317383 8.63156738 0.82617188 6.93261719 C0 4 0 4 0 0 Z " fill="#F1F2F2" transform="translate(66,23)"/>
<path d="M0 0 C2.31 0 4.62 0 7 0 C7 1.98 7 3.96 7 6 C13.27 6 19.54 6 26 6 C26 8.31 26 10.62 26 13 C25.08734375 13.03222656 24.1746875 13.06445312 23.234375 13.09765625 C19.75882276 13.70222397 19.75882276 13.70222397 17.953125 16.87109375 C17.39109375 18.04800781 16.8290625 19.22492188 16.25 20.4375 C13.1006424 26.8993576 13.1006424 26.8993576 11 29 C10.89698651 31.01411283 10.89698651 31.01411283 12 33 C14.52586626 34.79662657 14.52586626 34.79662657 17.5625 36.25 C19.08037109 37.03117187 19.08037109 37.03117187 20.62890625 37.828125 C21.41136719 38.21484375 22.19382813 38.6015625 23 39 C22.34 41.31 21.68 43.62 21 46 C15.53560308 45.30579349 12.04010875 42.49971571 7.62109375 39.3984375 C5.18321344 37.79678516 5.18321344 37.79678516 2.89453125 38.16015625 C0.9327201 39.02982511 -0.90639832 39.96342977 -2.75 41.0625 C-3.8225 41.701875 -4.895 42.34125 -6 43 C-7.39933145 39.10508664 -8.79103412 35.20752808 -10.17773438 31.30810547 C-10.75812674 29.67893996 -11.34033086 28.05041933 -11.92382812 26.42236328 C-12.89132739 23.72069487 -13.85238086 21.01679885 -14.8125 18.3125 C-15.12646729 17.43948242 -15.44043457 16.56646484 -15.76391602 15.66699219 C-16.05451904 14.84489258 -16.34512207 14.02279297 -16.64453125 13.17578125 C-16.90596924 12.44270752 -17.16740723 11.70963379 -17.43676758 10.9543457 C-18 9 -18 9 -18 6 C-12.06 6 -6.12 6 0 6 C0 4.02 0 2.04 0 0 Z " fill="#627F8C" transform="translate(94,48)"/>
<path d="M0 0 C1.4540625 0.0309375 1.4540625 0.0309375 2.9375 0.0625 C6.14805717 7.89657349 9.34592666 15.7356898 12.52636719 23.58203125 C13.39771624 25.7311579 14.27046992 27.8797164 15.14550781 30.02734375 C16.14785916 32.49383433 17.13872748 34.96454531 18.125 37.4375 C18.41576416 38.14825684 18.70652832 38.85901367 19.00610352 39.59130859 C20.43270593 43.20761071 21.27622025 46.16345362 20.9375 50.0625 C18.9575 50.0625 16.9775 50.0625 14.9375 50.0625 C14.09483289 48.31697527 13.26369962 46.5658792 12.4375 44.8125 C11.9734375 43.83796875 11.509375 42.8634375 11.03125 41.859375 C9.9375 39.0625 9.9375 39.0625 9.9375 35.0625 C0.0375 35.5575 0.0375 35.5575 -10.0625 36.0625 C-10.866875 38.186875 -11.67125 40.31125 -12.5 42.5 C-14.9375 48.9375 -14.9375 48.9375 -16.0625 50.0625 C-18.06208364 50.10330783 -20.06295254 50.10504356 -22.0625 50.0625 C-21.42841281 44.34456002 -19.40450397 39.39945845 -17.28125 34.10546875 C-16.90770386 33.16190018 -16.53415771 32.2183316 -16.14929199 31.24617004 C-15.36193195 29.26073788 -14.57171193 27.27643779 -13.77880859 25.29321289 C-12.56074042 22.24559753 -11.35192912 19.19443446 -10.14453125 16.14257812 C-9.37814189 14.21332797 -8.61123305 12.28428408 -7.84375 10.35546875 C-7.48019409 9.43887985 -7.11663818 8.52229095 -6.74206543 7.57792664 C-6.40501587 6.73647598 -6.06796631 5.89502533 -5.72070312 5.02807617 C-5.42393677 4.28450363 -5.12717041 3.54093109 -4.82141113 2.77482605 C-3.53273721 -0.13280021 -3.43140245 0.07002862 0 0 Z " fill="#E7EDE7" transform="translate(37.0625,21.9375)"/>
<path d="M0 0 C10.23 0 20.46 0 31 0 C29.4003017 3.19939661 28.08612295 5.29282221 25.84765625 7.96875 C25.23599609 8.70480469 24.62433594 9.44085938 23.99414062 10.19921875 C23.35669922 10.95847656 22.71925781 11.71773437 22.0625 12.5 C20.80263331 14.00978938 19.54349404 15.52018612 18.28515625 17.03125 C17.72707275 17.69705078 17.16898926 18.36285156 16.59399414 19.04882812 C14.95173985 21.01115072 14.95173985 21.01115072 13.41967773 23.24804688 C12.95118408 23.82619141 12.48269043 24.40433594 12 25 C11.34 25 10.68 25 10 25 C8.32742736 21.21091124 6.66294885 17.41832115 5 13.625 C4.28457031 12.00464844 4.28457031 12.00464844 3.5546875 10.3515625 C3.10351562 9.3203125 2.65234375 8.2890625 2.1875 7.2265625 C1.76855469 6.27346191 1.34960938 5.32036133 0.91796875 4.33837891 C0 2 0 2 0 0 Z " fill="#1867C0" transform="translate(60,101)"/>
<path d="M0 0 C8.91 0 17.82 0 27 0 C26.12182324 3.51270703 25.34712949 5.31210848 23.4375 8.25 C22.98246094 8.95640625 22.52742188 9.6628125 22.05859375 10.390625 C21.70925781 10.92171875 21.35992187 11.4528125 21 12 C17.15625 10.328125 17.15625 10.328125 15.75 7.375 C15.5025 6.59125 15.255 5.8075 15 5 C13.02 5.99 11.04 6.98 9 8 C10.25756667 11.48249231 11.7731892 14.06465849 14 17 C14 17.66 14 18.32 14 19 C11.4385343 21.29648649 10.52032428 22 7 22 C5.82828244 18.71010914 4.66348912 15.41780898 3.5 12.125 C3.16613281 11.18785156 2.83226563 10.25070313 2.48828125 9.28515625 C2.17246094 8.38925781 1.85664062 7.49335937 1.53125 6.5703125 C1.23798828 5.74289551 0.94472656 4.91547852 0.64257812 4.06298828 C0 2 0 2 0 0 Z " fill="#EBEDED" transform="translate(78,61)"/>
<path d="M0 0 C2.65647485 2.65647485 3.32092773 5.27309248 4.5625 8.8125 C4.99691406 10.03582031 5.43132813 11.25914063 5.87890625 12.51953125 C7 16 7 16 8 21 C3.38 21 -1.24 21 -6 21 C-5.36965709 17.84828545 -4.76583058 15.03069645 -3.80859375 12.01171875 C-3.58623047 11.30595703 -3.36386719 10.60019531 -3.13476562 9.87304688 C-2.90466797 9.15181641 -2.67457031 8.43058594 -2.4375 7.6875 C-2.20353516 6.94693359 -1.96957031 6.20636719 -1.72851562 5.44335938 C-1.15468028 3.62816595 -0.57765989 1.81397994 0 0 Z " fill="#1CA741" transform="translate(36,30)"/>
</svg>
