<?xml version="1.0" encoding="UTF-8"?>
<svg version="1.1" xmlns="http://www.w3.org/2000/svg" width="48" height="48">
<path d="M0 0 C1.59454983 -0.01652887 3.1890265 -0.04377886 4.78320312 -0.08203125 C7.0889303 -0.13704341 9.39292205 -0.15871051 11.69921875 -0.17333984 C12.40568542 -0.19600922 13.1121521 -0.21867859 13.84002686 -0.24203491 C17.71614173 -0.22563966 20.12202507 0.35731264 23.08691406 2.7578125 C28.2366889 7.96149629 26.94984542 14.77214221 27.00244141 21.69775391 C27.01897028 23.29230374 27.04622026 24.8867804 27.08447266 26.48095703 C27.13948482 28.78668421 27.16115192 31.09067595 27.17578125 33.39697266 C27.19845062 34.10343933 27.22112 34.80990601 27.24447632 35.53778076 C27.22808107 39.41389564 26.64512876 41.81977898 24.24462891 44.78466797 C19.04094512 49.93444281 12.23029919 48.64759933 5.3046875 48.70019531 C3.71013767 48.71672418 2.115661 48.74397417 0.52148438 48.78222656 C-1.7842428 48.83723873 -4.08823455 48.85890583 -6.39453125 48.87353516 C-7.10099792 48.89620453 -7.8074646 48.9188739 -8.53533936 48.94223022 C-12.41145423 48.92583498 -14.81733757 48.34288267 -17.78222656 45.94238281 C-22.9320014 40.73869903 -21.64515792 33.9280531 -21.69775391 27.00244141 C-21.71428278 25.40789158 -21.74153276 23.81341491 -21.77978516 22.21923828 C-21.83479732 19.9135111 -21.85646442 17.60951936 -21.87109375 15.30322266 C-21.89376312 14.59675598 -21.9164325 13.89028931 -21.93978882 13.16241455 C-21.92339357 9.28629967 -21.34044126 6.88041633 -18.93994141 3.91552734 C-13.73625762 -1.23424749 -6.92561169 0.05259598 0 0 Z " fill="#FCFDFE" transform="translate(21.34765625,-0.35009765625)"/>
<path d="M0 0 C3.85544798 1.99657127 5.59805092 3.39707638 8 7 C8.9740913 13.92117506 8.62134374 19.62662493 4.421875 25.32421875 C0.67788597 29.73677725 -3.13475733 32.94508018 -8 36 C-11 32.375 -11 32.375 -11 29 C-9.35 28.34 -7.7 27.68 -6 27 C-6 26.34 -6 25.68 -6 25 C-6.721875 25.103125 -7.44375 25.20625 -8.1875 25.3125 C-12.18952538 24.86783051 -13.46059734 23.01983019 -16 20 C-18.1945642 16.96941135 -18.53072734 13.82834004 -18.4609375 10.1015625 C-17.60803882 6.21292275 -14.90176501 3.59354645 -12 1 C-8.29240268 -0.85379866 -4.04626515 -0.45923868 0 0 Z " fill="#2572C0" transform="translate(29,7)"/>
<path d="M0 0 C2.9375 0.75 2.9375 0.75 4.9375 2.75 C5.3125 6.1875 5.3125 6.1875 4.9375 9.75 C3.3125 11.75 3.3125 11.75 0.9375 12.75 C-2.1875 12.625 -2.1875 12.625 -5.0625 11.75 C-7.0625 8.75 -7.0625 8.75 -6.875 5.1875 C-5.81721331 0.71224863 -4.63605151 -0.37845318 0 0 Z " fill="#F6F9FC" transform="translate(25.0625,13.25)"/>
</svg>
