<?xml version="1.0"?>
<svg xmlns="http://www.w3.org/2000/svg" width="42" height="42" viewBox="0 0 42 42" fill="none">
    <g clip-path="url(#clip0_3245_6615)">
        <rect width="42" height="42" rx="21" fill="#2B2B2B"/>
        <path d="M42 42H30.1055L11.8945 0H42V42Z" fill="#FC3F1D"/>
        <path d="M42 42H30.1055L11.8945 0H42V42Z" fill="#2B2B2B"/>
        <path fill-rule="evenodd" clip-rule="evenodd" d="M35.4672 17.7002C34.9849 16.5294 34.0535 15.6131 32.758 15.0263C32.9708 14.0258 33.0421 13.2146 33.0645 12.6836L30.8356 12.6836C30.8141 13.0868 30.7575 13.6841 30.6091 14.4205C28.8703 14.1753 26.9108 14.4129 25.0334 15.0868C24.8235 13.8715 24.6946 12.7451 24.6224 11.7446C31.3062 11.3679 35.2505 9.79097 35.4331 9.71525L34.5759 7.70291C34.5349 7.71995 30.8015 9.20033 24.5355 9.5638C24.5277 8.06165 24.4773 8.07006 24.5578 7.57015L22.3256 7.54687C22.2866 7.96998 22.2958 8.4043 22.3046 9.64142C22.2353 9.64237 22.1699 9.64521 22.0986 9.64615C20.1011 9.65089 18.2441 9.50039 17.8067 9.46158L17.3906 11.6681C18.0457 11.7239 20.0464 11.8279 21.8496 11.8279C21.9365 11.8279 22.0254 11.827 22.1152 11.827C22.2099 11.826 22.2978 11.8222 22.3925 11.8213C22.4803 13.066 22.6492 14.4915 22.9451 16.0476C19.9868 17.7693 17.6388 21.1116 18.8348 23.8291C19.3376 24.9696 20.3071 25.7013 21.5665 25.8878C21.7774 25.92 21.9951 25.9351 22.2197 25.9351C23.4928 25.9351 24.9533 25.4297 26.3475 24.5702C27.2604 25.9001 27.9955 26.5996 28.0619 26.6602L29.5928 25.0766C29.5781 25.0633 28.9318 24.4472 28.1176 23.2375C28.4817 22.91 28.8361 22.5654 29.1642 22.1906C30.6452 20.4973 31.5669 18.7386 32.1409 17.1683C32.6438 17.4522 33.1397 17.8791 33.4014 18.5162C34.2927 20.6809 33.005 23.1854 31.8061 24.272L33.3184 25.8726C35.313 24.0647 36.6925 20.6771 35.4672 17.7002ZM21.8994 23.7325C21.3947 23.6568 21.0793 23.4202 20.8792 22.9649C20.3285 21.7126 21.5236 19.6709 23.4703 18.3089C23.9575 20.0429 24.5814 21.51 25.216 22.7008C24.0258 23.4542 22.8084 23.8641 21.8994 23.7325ZM27.4732 20.7717C27.317 20.9497 27.15 21.1163 26.9831 21.2829C26.4295 20.1802 25.8945 18.8389 25.4874 17.2525C26.7332 16.7603 28.017 16.4991 29.2071 16.4991C29.4776 16.4991 29.7431 16.5123 30.0028 16.5398C29.5059 17.8649 28.719 19.3472 27.4732 20.7717Z" fill="white"/>
        <path d="M0 0H11.8945L30.1055 42H0V0Z" fill="#FC3F1D"/>
        <path d="M0 0H11.8945L30.1055 42H0V0Z" fill="url(#paint0_linear_3245_6615)" fill-opacity="0.4"/>
        <path fill-rule="evenodd" clip-rule="evenodd" d="M12.8216 15.3398L5.57812 32.0742L8.54253 32.0742L10.3237 27.6035L17.65 27.6035L19.4311 32.0742L22.3945 32.0742L15.1511 15.3398L12.8216 15.3398ZM13.9863 18.7852L16.6847 25.3477L11.288 25.3477L13.9863 18.7852Z" fill="white"/>
    </g>
    <defs>
        <linearGradient id="paint0_linear_3245_6615" x1="54.7997" y1="-4.80894" x2="10.0564" y2="33.7418" gradientUnits="userSpaceOnUse">
            <stop stop-color="white"/>
            <stop offset="1" stop-color="white" stop-opacity="0"/>
        </linearGradient>
        <clipPath id="clip0_3245_6615">
            <rect width="42" height="42" rx="21" fill="white"/>
        </clipPath>
    </defs>
</svg>
