<?xml version="1.0" encoding="UTF-8"?>
<svg version="1.1" xmlns="http://www.w3.org/2000/svg" width="512" height="512">
<path d="M0 0 C1.78951836 -0.01062721 1.78951836 -0.01062721 3.6151886 -0.02146912 C4.91559082 -0.0189917 6.21599304 -0.01651428 7.55580139 -0.01396179 C8.94580356 -0.0183113 10.33580334 -0.02349524 11.72579956 -0.02944946 C15.49440828 -0.04282484 19.26291662 -0.04341979 23.03154445 -0.04088616 C26.18014886 -0.0398155 29.32873305 -0.04470224 32.47733313 -0.04949158 C39.90649944 -0.06058163 47.33561519 -0.06102695 54.76478577 -0.05497742 C62.42368837 -0.04893663 70.08240732 -0.06125238 77.74127859 -0.08254749 C84.32232233 -0.10017153 90.90330764 -0.1061636 97.48437411 -0.10290974 C101.4125862 -0.10109808 105.34066727 -0.10372134 109.26885796 -0.11762428 C112.96335173 -0.13021121 116.65755943 -0.12825055 120.35204887 -0.11521339 C122.34995648 -0.11172509 124.34787287 -0.1230191 126.3457489 -0.13478088 C128.13949699 -0.12425941 128.13949699 -0.12425941 129.96948242 -0.11352539 C131.0046144 -0.11369313 132.03974638 -0.11386087 133.10624599 -0.1140337 C137.37613687 0.42983568 140.82752139 1.89309193 143.71595764 5.12910461 C144.14400696 5.82866272 144.57205627 6.52822083 145.01307678 7.24897766 C145.50920471 8.04771301 146.00533264 8.84644836 146.51649475 9.66938782 C147.02196838 10.52451965 147.52744202 11.37965149 148.04823303 12.26069641 C148.56788635 13.12742981 149.08753967 13.99416321 149.62294006 14.88716125 C151.30654211 17.72909778 152.96141639 20.58623665 154.61073303 23.44819641 C155.83674634 25.56309821 157.06332269 27.6776737 158.29042053 29.79194641 C158.91013733 30.86057922 159.52985413 31.92921204 160.16835022 33.03022766 C163.1671738 38.18353073 166.19951103 43.31686441 169.23573303 48.44819641 C169.77593079 49.36173889 170.31612854 50.27528137 170.87269592 51.21650696 C172.26282361 53.56560329 173.65326977 55.91446841 175.04823303 58.26069641 C175.65320618 59.61638733 175.65320618 59.61638733 176.270401 60.99946594 C177.91174648 63.59245747 177.91174648 63.59245747 181.22767639 63.88838196 C182.51810852 63.89136292 183.80854065 63.89434387 185.13807678 63.89741516 C185.83784134 63.90779312 186.5376059 63.91817108 187.25857544 63.92886353 C189.50145611 63.95855808 191.74269187 63.95518859 193.98573303 63.94819641 C196.91171557 63.96008673 199.83730123 63.98583267 202.76307678 64.02241516 C203.8313269 64.03558777 203.8313269 64.03558777 204.92115784 64.04902649 C220.3752725 64.35402431 233.73410809 68.37870819 245.04823303 79.26069641 C255.02667484 90.05768227 259.36308831 101.67396909 259.30892944 116.17153931 C259.31275499 117.2607731 259.31658054 118.3500069 259.32052201 119.47224778 C259.33082928 123.1170306 259.3268641 126.76165521 259.32289124 130.40644836 C259.32723898 133.0217656 259.33242234 135.63708156 259.33837891 138.25239563 C259.35111443 144.61624752 259.35292099 150.98005719 259.35057864 157.34391967 C259.34879384 162.51863379 259.35054861 167.69333512 259.35480309 172.86804771 C259.35539827 173.60523351 259.35599346 174.3424193 259.35660669 175.10194406 C259.35781847 176.59967501 259.35903261 178.09740596 259.36024906 179.5951369 C259.37112044 193.63473154 259.36896417 207.67430215 259.36286422 221.71389814 C259.35769688 234.54601607 259.36894638 247.37805804 259.38796244 260.21016095 C259.40735479 273.39768275 259.4155943 286.58516864 259.41183919 299.77270478 C259.40992907 307.17184237 259.41239604 314.57091534 259.42655373 321.97004128 C259.43973585 328.92957502 259.43718849 335.88895451 259.42414284 342.84848785 C259.42177728 345.40019723 259.42451098 347.9519173 259.43276596 350.50361443 C259.44323652 353.99221968 259.43512956 357.48031545 259.42245483 360.96890259 C259.42982912 361.97388253 259.4372034 362.97886247 259.44480115 364.01429635 C259.3454144 377.05606913 254.36233287 389.94659657 245.04823303 399.26069641 C234.55794289 408.0669266 223.56002717 413.37583667 209.78507233 413.39491749 C209.06057392 413.39726972 208.33607552 413.39962195 207.58962262 413.40204546 C205.15503464 413.40871744 202.72050027 413.40827778 200.28590393 413.40786743 C198.52543828 413.41116718 196.76497338 413.41489298 195.00450945 413.41900891 C190.16102944 413.42902444 185.31756183 413.43274499 180.47407293 413.43539822 C175.25231748 413.43930261 170.03057183 413.44888087 164.80882263 413.45761108 C152.19523677 413.47737188 139.5816501 413.4874413 126.96805263 413.49633887 C121.02741745 413.50072248 115.08678316 413.50608911 109.14614868 413.51132774 C89.39687536 413.52833978 69.64760259 413.54283377 49.89832306 413.55007648 C44.77348836 413.55198636 39.64865366 413.5539067 34.52381897 413.55586243 C33.25007339 413.55634617 31.97632781 413.55682991 30.66398388 413.55732831 C10.03190389 413.56562793 -10.60011811 413.59096385 -31.23217279 413.6234431 C-52.41673749 413.65652012 -73.60127273 413.67452584 -94.7858634 413.67772073 C-106.67936137 413.67988524 -118.57277477 413.68862542 -130.46624756 413.7141819 C-140.59568842 413.73589763 -150.72502419 413.74393498 -160.85448569 413.73421512 C-166.02064291 413.72967297 -171.1865833 413.73155187 -176.35271072 413.75097656 C-181.08793046 413.76862688 -185.82277549 413.76759526 -190.55799931 413.75207927 C-192.26534226 413.74970605 -193.97271128 413.75401184 -195.68001443 413.76590792 C-212.29717166 413.87446228 -226.08487531 410.39980641 -238.95176697 399.26069641 C-248.86972462 387.36653491 -253.26661135 376.66648738 -253.2191925 361.24305725 C-253.22598917 359.61004162 -253.22598917 359.61004162 -253.23292315 357.94403577 C-253.24555287 354.30703278 -253.24394767 350.6701798 -253.24229431 347.03315735 C-253.24828044 344.42093717 -253.25508619 341.80871877 -253.26264954 339.19650269 C-253.27922585 332.8434848 -253.28475756 326.49050405 -253.28587429 320.13746634 C-253.28682638 314.97042051 -253.29094472 309.80338688 -253.29727554 304.63634491 C-253.31487891 289.96927178 -253.32411585 275.30222786 -253.3226146 260.63514408 C-253.32253468 259.84529217 -253.32245477 259.05544026 -253.32237244 258.24165344 C-253.32229068 257.45083104 -253.32220891 256.66000863 -253.32212467 255.84522191 C-253.32131207 243.03389803 -253.34044557 230.22269181 -253.36864917 217.41140196 C-253.39741623 204.23965783 -253.41118736 191.06797102 -253.40946162 177.8961947 C-253.40879903 170.50816135 -253.41423374 163.12025135 -253.43581772 155.7322464 C-253.45599443 148.78168959 -253.45531684 141.83139676 -253.44078445 134.88082695 C-253.43869662 132.33479113 -253.44339565 129.78873898 -253.45550537 127.24273109 C-253.47100671 123.75694088 -253.46161633 120.27204201 -253.44624329 116.78627014 C-253.45653041 115.787798 -253.46681754 114.78932586 -253.4774164 113.76059699 C-253.35213079 100.83338123 -248.36593751 89.30850252 -239.69786072 79.78413391 C-225.4598954 66.11751551 -209.3087664 64.0736329 -190.45176697 64.19819641 C-189.15239197 64.20270813 -187.85301697 64.20721985 -186.51426697 64.21186829 C-183.32671871 64.22358721 -180.13926742 64.23999422 -176.95176697 64.26069641 C-176.98318787 63.43045959 -176.98318787 63.43045959 -177.01524353 62.58345032 C-177.45444763 49.22664206 -177.66575309 39.55325772 -168.70176697 28.94819641 C-160.83562527 20.7878738 -152.40028294 16.52805451 -140.86582947 16.16304016 C-129.9135448 16.74021712 -121.50364139 20.28656665 -113.95176697 28.26069641 C-106.71146679 36.45323561 -104.45865337 43.97802176 -104.76426697 54.76069641 C-104.77780212 55.67850891 -104.79133728 56.59632141 -104.80528259 57.54194641 C-104.840286 59.78216444 -104.88937828 62.02110235 -104.95176697 64.26069641 C-73.21688056 68.27606228 -73.21688056 68.27606228 -43.84141541 60.80220032 C-37.62879219 54.87214543 -35.03425656 46.31485283 -32.44200134 38.34761047 C-30.30470882 32.07551048 -26.732809 26.60537316 -23.2313385 21.01942444 C-21.51571068 18.25648937 -19.88899516 15.44150479 -18.24473572 12.63569641 C-13.38264947 4.36645816 -10.03378273 0.01990621 0 0 Z M-4.47203064 28.9589386 C-5.46822557 31.03029099 -6.34133411 33.09744312 -7.14736748 35.2495575 C-8.40307734 38.38905099 -10.16190464 41.10528096 -11.95567322 43.96772766 C-13.14444117 46.00138378 -14.33069811 48.03651008 -15.51426697 50.07319641 C-16.12850525 51.12055969 -16.74274353 52.16792297 -17.37559509 53.24702454 C-17.95889587 54.24798157 -18.54219666 55.2489386 -19.14317322 56.28022766 C-19.91963196 57.61211121 -19.91963196 57.61211121 -20.71177673 58.97090149 C-22.06549883 61.31242456 -22.06549883 61.31242456 -22.95176697 64.26069641 C35.12823303 64.26069641 93.20823303 64.26069641 153.04823303 64.26069641 C151.38112216 60.09291924 149.60277685 56.59484082 147.34510803 52.74507141 C146.80469879 51.82217316 146.80469879 51.82217316 146.25337219 50.88063049 C145.49184462 49.58201822 144.7286064 48.28440776 143.96376038 46.98774719 C142.81151459 45.03322554 141.66579869 43.0749912 140.52088928 41.11616516 C139.77518609 39.84640446 139.02910389 38.57686626 138.28260803 37.30757141 C137.28052307 35.60359192 137.28052307 35.60359192 136.25819397 33.8651886 C135.72230904 33.01029988 135.72230904 33.01029988 135.17559814 32.13814068 C134.04823303 30.26069641 134.04823303 30.26069641 132.94491577 27.98479176 C130.99485714 24.37255772 129.52023246 21.76224561 125.51900101 20.39892006 C122.30538195 20.03630557 119.19359109 19.96459241 115.95936584 19.98506165 C114.74560272 19.95804672 113.5318396 19.9310318 112.28129578 19.90319824 C108.96129673 19.8408934 105.64636115 19.81936831 102.32611942 19.82124591 C99.54795624 19.81862711 96.77026571 19.790424 93.99225307 19.76317459 C87.43183974 19.70034665 80.87256048 19.68716563 74.31190491 19.70283508 C67.56262432 19.71790363 60.81876731 19.6406453 54.07068753 19.51897663 C48.26124703 19.4180403 42.45355253 19.37956583 36.64324832 19.38924748 C33.17934627 19.39412891 29.71987536 19.37511874 26.25682831 19.29392815 C8.22365352 18.19530313 8.22365352 18.19530313 -4.47203064 28.9589386 Z M-152.76426697 43.01069641 C-157.63632245 50.24917884 -156.95176697 55.17449712 -156.95176697 64.26069641 C-146.39176697 64.26069641 -135.83176697 64.26069641 -124.95176697 64.26069641 C-124.57976316 52.48599839 -124.57976316 52.48599839 -129.42832947 42.40522766 C-132.90185992 39.0665146 -136.12768417 37.34021992 -140.97129822 37.09663391 C-146.04077785 37.5165908 -149.19880526 39.52446718 -152.76426697 43.01069641 Z M-223.95176697 94.26069641 C-232.12171017 104.18009212 -233.10622942 114.07545018 -233.08547974 126.48782349 C-233.08774529 127.49145154 -233.09001085 128.4950796 -233.09234506 129.52912062 C-233.09865424 132.87821567 -233.09785768 136.22726992 -233.09703064 139.57637024 C-233.10002404 141.98331759 -233.10342699 144.39026445 -233.10720825 146.79721069 C-233.11511773 152.64856673 -233.11826209 158.49991328 -233.11882063 164.35127357 C-233.11929681 169.1102386 -233.12135662 173.86920031 -233.12452126 178.62816429 C-233.13332159 192.13821048 -233.13794157 205.64824874 -233.13719078 219.15829781 C-233.13715083 219.88568554 -233.13711087 220.61307327 -233.1370697 221.36250305 C-233.13702882 222.09078486 -233.13698794 222.81906667 -233.13694582 223.56941762 C-233.13653946 235.36936883 -233.14610812 247.16928811 -233.16020807 258.96923009 C-233.17459124 271.10248189 -233.1814772 283.23571814 -233.18061429 295.36897868 C-233.18028301 302.17399647 -233.18300003 308.97898078 -233.19379234 315.78399086 C-233.20348825 322.18538456 -233.20354221 328.58670765 -233.19627571 334.98810387 C-233.19523176 337.33298725 -233.1975815 339.67787506 -233.20363617 342.02275085 C-233.21138575 345.23278904 -233.20669162 348.4425852 -233.19900513 351.65261841 C-233.20414869 352.57229348 -233.20929225 353.49196854 -233.21459168 354.43951255 C-233.15200356 366.33277999 -231.37662647 375.43760182 -223.06114197 384.26850891 C-213.75440189 393.02563836 -203.9979936 392.69500933 -191.95361328 392.64837646 C-190.20420424 392.65255126 -188.45479791 392.65802958 -186.70539659 392.66469628 C-181.90652554 392.67915035 -177.10782623 392.67490626 -172.30894578 392.66752946 C-167.13025368 392.66280004 -161.95159886 392.67530562 -156.7729187 392.68554688 C-146.63090005 392.70274437 -136.48894333 392.70357294 -126.34691388 392.69833397 C-118.10394447 392.69429297 -109.86099336 392.69573501 -101.61802483 392.70108223 C-100.44495409 392.70183065 -99.27188335 392.70257907 -98.06326501 392.70335018 C-95.68020086 392.70488165 -93.29713671 392.70641999 -90.91407257 392.70796514 C-68.56559263 392.72169352 -46.21714769 392.71625002 -23.86866855 392.70477993 C-3.42159925 392.69484625 17.02537958 392.70778999 37.47243493 392.73171412 C58.46724147 392.75609411 79.46200585 392.76571576 100.45682627 392.7590614 C112.24394872 392.75556686 124.03100157 392.75781681 135.81811333 392.77531242 C145.85172177 392.79002057 155.88521161 392.7906879 165.91881769 392.77324151 C171.03791115 392.76471794 176.15679259 392.76261519 181.27587509 392.77789307 C185.96328714 392.79170945 190.65030493 392.78701622 195.337694 392.76765383 C197.03208446 392.76388417 198.72650627 392.76684358 200.42086887 392.77726548 C212.40534688 392.84573116 221.22755193 391.65882685 230.25917053 383.16694641 C238.68035682 374.19415404 239.35983933 363.52798455 239.30220032 351.67280579 C239.3053203 350.66661446 239.30844028 349.66042313 239.31165481 348.62374115 C239.31957195 345.28391496 239.3133358 341.94427365 239.30702209 338.60444641 C239.30973475 336.19705601 239.31329722 333.78966645 239.31764221 331.38227844 C239.32579316 325.54134311 239.32463058 319.70046559 239.31881693 313.85952854 C239.31428599 309.10921368 239.31369371 304.35891321 239.31586456 299.6085968 C239.31632426 298.59148802 239.31632426 298.59148802 239.31679325 297.55383158 C239.31743275 296.17600949 239.31808118 294.79818741 239.31873843 293.42036533 C239.32443102 280.52383175 239.31790068 267.62732667 239.3071377 254.73079777 C239.29820316 243.68345805 239.2997555 232.63616037 239.30897522 221.58882141 C239.31969682 208.73600829 239.3238818 195.88322011 239.31775069 183.03040314 C239.31711365 181.65786744 239.3164849 180.28533173 239.31586456 178.91279602 C239.31555601 178.23761759 239.31524746 177.56243917 239.31492956 176.86680079 C239.31320828 172.12642979 239.31610545 167.38607471 239.32082367 162.64570618 C239.32661547 156.25657784 239.32256661 149.86752863 239.31103516 143.47840881 C239.30839839 141.13836295 239.3091368 138.79831038 239.31356049 136.45826721 C239.31905624 133.25495161 239.31213306 130.05188683 239.30220032 126.84858704 C239.30666176 125.93095833 239.3111232 125.01332962 239.31571984 124.06789398 C239.25165616 113.35641559 237.85087512 103.82031229 231.04823303 95.26069641 C223.29889443 87.81001387 214.56396544 85.13978505 203.96410084 85.12926865 C203.25896413 85.12721601 202.55382742 85.12516338 201.82732293 85.12304854 C199.45862539 85.11738291 197.08998608 85.11883525 194.72128296 85.12025452 C193.00817698 85.11767063 191.2950716 85.11465741 189.58196706 85.11125112 C184.86951221 85.10318063 180.1570726 85.10139152 175.44461167 85.10065365 C170.3640204 85.09880318 165.28343704 85.09125589 160.20285034 85.08451843 C149.09126019 85.0709343 137.97967364 85.06491029 126.86807656 85.06050777 C119.930556 85.05774553 112.99303682 85.05350821 106.0555172 85.0490036 C86.84924691 85.03681091 67.64297775 85.02651154 48.43670368 85.02312851 C47.20736863 85.02290894 45.97803357 85.02268938 44.71144594 85.02246316 C43.47916267 85.02224488 42.2468794 85.0220266 40.97725421 85.02180171 C38.48016187 85.02135824 35.98306952 85.02091168 33.48597717 85.02046204 C32.24733204 85.02024061 31.00868691 85.02001918 29.73250707 85.01979104 C9.66099918 85.01584283 -10.41047241 84.99838811 -30.48196628 84.97510251 C-51.08682042 84.951391 -71.69165634 84.93892675 -92.29652435 84.93776059 C-103.86629927 84.93684373 -115.4360269 84.9310885 -127.0057888 84.91294098 C-136.85752737 84.89754273 -146.70920402 84.89241793 -156.56095233 84.90067908 C-161.58695893 84.90458652 -166.61284083 84.90365132 -171.63883209 84.88962173 C-176.2424642 84.8768887 -180.84587782 84.87807515 -185.4495096 84.89021245 C-187.11238244 84.89217047 -188.77527073 84.88908615 -190.43812188 84.88036808 C-202.90750969 84.81914713 -214.19465786 85.62294973 -223.95176697 94.26069641 Z " fill="#000000" transform="translate(252.95176696777344,98.73930358886719)"/>
<path d="M0 0 C0.57669434 0.27682617 1.15338867 0.55365234 1.74755859 0.83886719 C11.38956503 5.52683352 19.8019568 11.1100174 28 18 C28.99644531 18.81984375 29.99289062 19.6396875 31.01953125 20.484375 C55.66773379 41.80523172 69.81259537 72.79548852 72.60742188 104.99487305 C74.93279334 137.69740023 65.06462165 170.44077438 43.84765625 195.546875 C41.61109418 198.07823875 39.31924641 200.54432733 37 203 C36.26394531 203.81210937 35.52789062 204.62421875 34.76953125 205.4609375 C19.26386925 221.92758692 -1.48966159 231.93361225 -23 238 C-24.20140625 238.34160156 -25.4028125 238.68320312 -26.640625 239.03515625 C-58.13995376 246.36454552 -92.80458695 239.98010992 -120.30078125 223.36328125 C-147.56645368 206.22425328 -166.85588429 180.78060605 -176 150 C-176.21172852 149.31083496 -176.42345703 148.62166992 -176.64160156 147.91162109 C-182.98185572 126.43413574 -182.18542796 100.42111369 -176 79 C-175.80744629 78.30696777 -175.61489258 77.61393555 -175.41650391 76.89990234 C-172.16096654 65.51232092 -172.16096654 65.51232092 -168.1875 61.625 C-163.8875644 59.43287597 -161.79468258 59.31504535 -157 60 C-154.1899654 61.79363911 -152.49059532 63.01880935 -151 66 C-150.25036859 73.37137549 -152.1697654 79.1398966 -154.7109375 85.9609375 C-162.82819495 109.71243699 -159.0826039 137.75662845 -148.6875 160.125 C-145.16191075 167.30044766 -141.15390494 173.86108234 -136 180 C-135.29101562 180.84691406 -134.58203125 181.69382812 -133.8515625 182.56640625 C-116.09177746 202.97458029 -91.3243854 217.21271032 -63.96972656 219.22265625 C-32.21560415 220.38353813 -5.34041019 211.82794911 18.6875 190.62890625 C38.59213748 171.68839965 49.78696787 145.81133177 50.53662109 118.46191406 C50.75092414 88.24114168 40.80957091 62.0669468 20 40 C-0.713821 20.5377694 -28.36690878 9.16820754 -56.92578125 9.81640625 C-70.30780048 10.61558656 -82.34902982 13.78300994 -95 18 C-102.1026253 18.57279236 -102.1026253 18.57279236 -105.9375 16.125 C-109.05675575 12.91122135 -109.19210196 10.69505803 -109.5234375 6.265625 C-108.70221618 2.71108495 -106.68121231 0.34957562 -104 -2 C-101.49611342 -3.42269464 -98.92714287 -4.31937371 -96.1875 -5.1875 C-95.0735083 -5.55911255 -95.0735083 -5.55911255 -93.93701172 -5.93823242 C-63.46812827 -15.726047 -28.91278534 -14.01599925 0 0 Z " fill="#000000" transform="translate(372,223)"/>
<path d="M0 0 C1.23169922 0.94359375 1.23169922 0.94359375 2.48828125 1.90625 C18.48606485 15.24188299 26.57630932 35.91644872 28.671875 56.13647461 C30.56241125 80.5900359 21.66826526 102.02809452 5.9140625 120.4375 C-7.73416223 135.04972573 -27.91202399 144.35838144 -47.80078125 145.38671875 C-73.35678198 146.12361829 -94.77531094 138.42694799 -113.625 120.875 C-119.06551054 115.23913899 -123.03600652 108.71321477 -127 102 C-127.433125 101.2678125 -127.86625 100.535625 -128.3125 99.78125 C-137.43785457 82.95637751 -139.10769144 59.80102046 -134.5 41.375 C-130.92051014 29.39698975 -125.18512776 18.45187372 -117 9 C-116.37351563 8.1853125 -115.74703125 7.370625 -115.1015625 6.53125 C-102.25592522 -8.9408187 -81.708464 -17.42873604 -62.19921875 -19.72265625 C-39.10101447 -21.72506468 -17.78285283 -14.696018 0 0 Z M-98.1875 19.5625 C-110.35660647 32.33135576 -115.65508518 47.74741462 -115.47094727 65.18945312 C-114.87652765 82.68462561 -107.50159555 96.84688098 -95 109 C-81.89808696 120.82885267 -66.15172014 124.84505978 -48.94921875 124.34375 C-31.81586488 123.42630133 -17.58054796 114.61163832 -6.2578125 102.0703125 C2.73069175 90.84632533 7.59625664 77.48693774 7.4375 63.1875 C7.42992676 62.22481201 7.42235352 61.26212402 7.41455078 60.27026367 C7.02213296 43.24018951 -0.1398218 29.92348876 -12 18 C-12.51820313 17.44699219 -13.03640625 16.89398438 -13.5703125 16.32421875 C-37.4335945 -6.85190068 -75.37853554 -1.67943637 -98.1875 19.5625 Z " fill="#000000" transform="translate(372,275)"/>
<path d="M0 0 C2.65108467 1.40284178 3.90953523 2.70558745 6 5 C6.96888009 8.48368384 7.13459679 11.81058459 7.16113281 15.41357422 C7.17074036 16.47172333 7.1803479 17.52987244 7.19024658 18.62008667 C7.19449646 19.75350494 7.19874634 20.88692322 7.203125 22.0546875 C7.20882507 23.22959747 7.21452515 24.40450745 7.22039795 25.61502075 C7.22983382 28.09799299 7.23637631 30.58097767 7.24023438 33.06396484 C7.24994635 36.8540638 7.28098666 40.64362182 7.3125 44.43359375 C7.3190299 46.84895512 7.32428042 49.26432036 7.328125 51.6796875 C7.3404718 52.80905731 7.3528186 53.93842712 7.36553955 55.10202026 C7.34839875 61.18165537 7.01311565 65.66454052 4 71 C1.62500132 73.23529288 0.06742425 73.93889521 -3.18359375 74.125 C-9.21303349 73.80818215 -9.21303349 73.80818215 -12.10214233 70.84118652 C-14.33877503 67.49283707 -14.51565879 65.72078746 -14.54931641 61.72851562 C-14.56838043 60.48372437 -14.58744446 59.23893311 -14.60708618 57.9564209 C-14.60656334 56.60636278 -14.60468932 55.2563046 -14.6015625 53.90625 C-14.60934279 52.51289359 -14.61801345 51.1195419 -14.62753296 49.72619629 C-14.64242759 46.81095984 -14.64189661 43.89620795 -14.63134766 40.98095703 C-14.61974796 37.25124629 -14.65365039 33.52351879 -14.700037 29.79413605 C-14.72954665 26.91836017 -14.73125112 24.0430605 -14.72501755 21.16716003 C-14.72604188 19.79245569 -14.73647876 18.41772397 -14.75664139 17.04316711 C-14.8944472 6.33691954 -14.8944472 6.33691954 -12.69012451 3.04214478 C-8.6823552 -0.41243668 -5.01954272 -1.24740127 0 0 Z " fill="#000000" transform="translate(322,0)"/>
<path d="M0 0 C3.51038651 2.59463351 4.77811815 4.23728114 6 8.4375 C6 15.51467991 1.84791133 19.50281818 -2.87852478 24.26971436 C-3.65982254 25.04180237 -4.4411203 25.81389038 -5.24609375 26.609375 C-6.45737694 27.82140594 -6.45737694 27.82140594 -7.69313049 29.05792236 C-9.39672461 30.7591819 -11.10399837 32.45676373 -12.81469727 34.15087891 C-15.43357292 36.74610838 -18.03882187 39.35445466 -20.64257812 41.96484375 C-22.30129179 43.61798209 -23.9607712 45.27035254 -25.62109375 46.921875 C-26.40036728 47.70205994 -27.17964081 48.48224487 -27.98252869 49.28607178 C-28.71331131 50.00732239 -29.44409393 50.728573 -30.19702148 51.47167969 C-30.83639145 52.10644226 -31.47576141 52.74120483 -32.13450623 53.39520264 C-35.16065309 55.99845577 -37.4073024 56.92316883 -41.375 57.4375 C-46.1853299 56.85694294 -47.61392593 55.38607407 -51 52 C-52.63023814 48.73952371 -52.4673535 46.62198965 -52 43 C-50.70941162 41.16697693 -50.70941162 41.16697693 -48.98339844 39.28295898 C-48.34559448 38.58427704 -47.70779053 37.88559509 -47.05065918 37.16574097 C-43.66934941 33.59467408 -40.2404087 30.07781022 -36.765625 26.59765625 C-36.00578308 25.83448593 -35.24594116 25.07131561 -34.46307373 24.28501892 C-32.87105744 22.68797678 -31.27771754 21.09225305 -29.68310547 19.49780273 C-27.2376743 17.05016317 -24.80037844 14.5946063 -22.36328125 12.13867188 C-20.81038486 10.58284508 -19.25701631 9.02748937 -17.703125 7.47265625 C-16.97498596 6.7373317 -16.24684692 6.00200714 -15.49664307 5.24440002 C-14.81873718 4.56957077 -14.1408313 3.89474152 -13.44238281 3.19946289 C-12.55138885 2.30633141 -12.55138885 2.30633141 -11.64239502 1.39515686 C-7.91663656 -1.76974404 -4.48537079 -1.08267571 0 0 Z " fill="#000000" transform="translate(407,17)"/>
<path d="M0 0 C3.52683304 2.68059088 6.53963079 5.81866002 9.6171875 8.99609375 C10.9638298 10.35191307 10.9638298 10.35191307 12.337677 11.73512268 C14.71248725 14.13228558 17.07317637 16.54182825 19.42840576 18.95812988 C21.35772278 20.93115996 23.30012307 22.8910185 25.24334526 24.85034084 C29.25403742 28.89494555 33.25457558 32.94966251 37.23388672 37.02514648 C37.93891327 37.74604965 38.64393982 38.46695282 39.37033081 39.20970154 C41.6433074 41.70671536 41.97972266 42.82426308 42.375 46.25 C41.88072704 51.19272958 40.46171699 52.53828301 37 56 C33.89046621 57.5547669 31.43733239 57.28644437 28 57 C22.39272484 53.86750331 18.1221104 49.42837401 13.609375 44.91015625 C12.82355042 44.12861679 12.03772583 43.34707733 11.22808838 42.54185486 C9.57497306 40.8944634 7.92444631 39.24447076 6.27636719 37.59204102 C3.7532258 35.06572985 1.21702523 32.55305856 -1.3203125 30.04101562 C-2.92789353 28.43570677 -4.53469161 26.82961339 -6.140625 25.22265625 C-6.89893616 24.47355484 -7.65724731 23.72445343 -8.4385376 22.95265198 C-9.13976746 22.24519333 -9.84099731 21.53773468 -10.56347656 20.80883789 C-11.48897308 19.88428551 -11.48897308 19.88428551 -12.4331665 18.9410553 C-15.16847988 15.55244091 -16.01494202 12.83675304 -15.9375 8.5 C-14.8177994 4.31978443 -13.33213164 2.6974399 -10 0 C-6.26618201 -1.244606 -3.63633343 -1.43926231 0 0 Z " fill="#000000" transform="translate(239,17)"/>
<path d="M0 0 C1.10156937 -0.00960754 2.20313873 -0.01921509 3.33808899 -0.02911377 C5.12402718 -0.03548859 5.12402718 -0.03548859 6.94604492 -0.04199219 C8.78280037 -0.0505423 8.78280037 -0.0505423 10.65666199 -0.05926514 C13.24994034 -0.06871832 15.84323072 -0.07525038 18.43652344 -0.07910156 C22.40019747 -0.08880278 26.3633521 -0.11982241 30.3269043 -0.15136719 C32.84578142 -0.15789768 35.36466226 -0.16314797 37.88354492 -0.16699219 C39.66037407 -0.18551239 39.66037407 -0.18551239 41.47309875 -0.20440674 C51.95077686 -0.17610448 51.95077686 -0.17610448 56.61401367 3.16113281 C58.70024508 6.29047993 58.98155931 7.40467568 59.11401367 11.03613281 C59.16557617 11.87917969 59.21713867 12.72222656 59.27026367 13.59082031 C58.49134953 16.64156735 57.21240206 18.1497875 54.75891113 20.09396362 C49.96493521 22.47915149 44.34871662 21.86715611 39.11401367 21.82519531 C37.8049707 21.82997894 36.49592773 21.83476257 35.1472168 21.83969116 C32.38324305 21.84704067 29.62008022 21.83642146 26.85620117 21.81298828 C23.32514905 21.78449893 19.79599715 21.80091364 16.26501465 21.8308506 C12.88119805 21.85333262 9.49788415 21.83756098 6.11401367 21.82519531 C4.85137695 21.83531647 3.58874023 21.84543762 2.2878418 21.85586548 C-7.47148725 21.72567121 -7.47148725 21.72567121 -11.18212891 18.77587891 C-14.23983526 15.1480917 -14.18942259 13.10596364 -13.91723633 8.54003906 C-13.10702593 4.91196457 -11.34274573 3.29275005 -8.38598633 1.16113281 C-5.32487452 0.14076221 -3.20646187 0.02256911 0 0 Z " fill="#000000" transform="translate(89.385986328125,244.8388671875)"/>
<path d="M0 0 C10.07730786 3.41766067 18.77693423 10.42609793 23.6875 19.875 C26.98627599 27.08022124 28.97538644 33.91029814 27.875 41.875 C26.54630587 44.98364287 24.97381686 47.32559157 21.875 48.875 C17.34889642 49.49745039 13.95579327 49.53287416 10 47.125 C7.37934332 43.11693684 6.63537423 39.38511195 5.6015625 34.75 C4.24320112 29.37497864 1.70578995 26.23598413 -2.75 23.125 C-5.92077594 21.25216786 -8.68715329 20.45851333 -12.3125 19.875 C-15.768196 19.28396417 -17.22453139 18.80930928 -20.25 16.8125 C-22.81965805 12.78670239 -23.06105052 9.52995393 -22.125 4.875 C-17.04476832 -3.25337069 -8.52371212 -2.27120856 0 0 Z " fill="#000000" transform="translate(330.125,299.125)"/>
<path d="M0 0 C3.02182284 2.05741129 4.69011377 3.49949825 5.4453125 7.15625 C5.65056702 11.26134032 5.33688603 13.46098235 3.125 17 C-0.10090806 20.03614876 -2.44456065 20.40859474 -6.89453125 20.34375 C-10.78521443 19.70853642 -12.39157143 17.92652961 -15 15 C-16.42831404 11.13515023 -16.08173878 9.28368165 -14.9375 5.3125 C-11.31590664 -0.87925639 -6.74009887 -1.96075604 0 0 Z " fill="#000000" transform="translate(241,246)"/>
</svg>
